***************************************************************

[IMG]http://www.hotimg.org/images/67363952943939111394.png[/IMG]

***************************************************************

[IMG]http://www.hotimg.org/images/15087303455275385399.jpg[/IMG]

***************************************************************

FILM TITLE: The Three Musketeers (2011)

***************************************************************

Genre: Action | Adventure | Romance    

Rated PG-13 for sequences of adventure action violence

Release:  30 September 2011 (Sweden)

Director: Paul W.S. Anderson 

Writer: Alex Litvak (screenplay), Andrew Davies (screenplay)

Stars:  Logan Lerman, Matthew Macfadyen and Ray Stevenson 

Country: Germany | France | UK | USA

Language: English 

Plot:
The hot-headed young D'Artagnan along with three former legendary 
but now down on their luck Musketeers must unite and defeat a beautiful 
double agent and her villainous employer from seizing the French throne 
and engulfing Europe in war.

IMDB Rating: 5.9/10 from 21,076 users   Metascore: 35/100
 
http://www.imdb.com/title/tt1509767/

****************************************************************

[URL=http://www.hotimg.org/viewer.php?file=41608060246173210702.png][IMG]http://www.hotimg.org/images/41608060246173210702_thumb.png[/IMG][/URL]
[URL=http://www.hotimg.org/viewer.php?file=29990882141872382526.png][IMG]http://www.hotimg.org/images/29990882141872382526_thumb.png[/IMG][/URL]
[URL=http://www.hotimg.org/viewer.php?file=70741435947523484790.png][IMG]http://www.hotimg.org/images/70741435947523484790_thumb.png[/IMG][/URL]
[URL=http://www.hotimg.org/viewer.php?file=11354082355768457984.png][IMG]http://www.hotimg.org/images/11354082355768457984_thumb.png[/IMG][/URL]
[URL=http://www.hotimg.org/viewer.php?file=52757681808522903378.png][IMG]http://www.hotimg.org/images/52757681808522903378_thumb.png[/IMG][/URL]

****************************************************************

General
Complete name                    : The Three Musketeers 2011 720p BDRip XviD ac3 (avi) [GREYSHADOW].avi
Format                           : AVI
Format/Info                      : Audio Video Interleave
Format profile                   : OpenDML
File size                        : 3.74 GiB
Duration                         : 1h 50mn
Overall bit rate                 : 4839 Kbps
Writing library                  : VirtualDub build 32842/release

Video
ID                               : 0
Format                           : MPEG-4 Visual
Format profile                   : Simple@L5
Format settings, BVOP            : No
Format settings, QPel            : No
Format settings, GMC             : No warppoints
Format settings, Matrix          : Default (H.263)
Codec ID                         : XVID
Codec ID/Hint                    : XviD
Duration                         : 1h 50mn
Bit rate                         : 4190 Kbps
Width                            : 1280 pixels
Height                           : 544 pixels
Display aspect ratio             : 2.35:1
Frame rate                       : 23.976 fps
Color space                      : YUV
Chroma subsampling               : 4:2:0
Bit depth                        : 8 bits
Scan type                        : Progressive
Compression mode                 : Lossy
Bits/(Pixel*Frame)               : 0.251
Stream size                      : 3.24 GiB (87%)
Writing library                  : XviD 64

Audio
ID                               : 1
Format                           : AC-3
Format/Info                      : Audio Coding 3
Mode extension                   : CM (complete main)
Codec ID                         : 2000
Duration                         : 1h 50mn
Bit rate mode                    : Constant
Bit rate                         : 640 Kbps
Channel(s)                       : 6 channels
Channel positions                : Front: L C R, Side: L R, LFE
Sampling rate                    : 48.0 KHz
Bit depth                        : 16 bits
Compression mode                 : Lossy
Stream size                      : 506 MiB (13%)
Alignment                        : Aligned on interleaves
Interleave, duration             : 42 ms (1.00 video frame)
Interleave, preload duration     : 512 ms

****************************************************************

Video Source: The Three Musketeers 2011 1080p Blu-ray Ger AVC DTS-HD HR 5.1-CHDBits (34.04GB)

Thanks: ka (chdbits.org) 

****************************************************************

I provide a small sample, so please download this to check your 
compatibility first if you are unsure.

****************************************************************

Hash: 40B3FE15783DA6CE349597464BFA97F2A2B37DA8

Trackers:
.udp://tracker.1337x.org:80/announce

****************************************************************